<svg xmlns="http://www.w3.org/2000/svg" viewBox="0 0 32 32">
  <!-- QR Code styled favicon -->
  <rect width="32" height="32" fill="#ffffff"/>
  
  <!-- Top-left finder pattern -->
  <rect x="2" y="2" width="10" height="10" fill="#000000"/>
  <rect x="4" y="4" width="6" height="6" fill="#ffffff"/>
  <rect x="6" y="6" width="2" height="2" fill="#000000"/>
  
  <!-- Top-right finder pattern -->
  <rect x="20" y="2" width="10" height="10" fill="#000000"/>
  <rect x="22" y="4" width="6" height="6" fill="#ffffff"/>
  <rect x="24" y="6" width="2" height="2" fill="#000000"/>
  
  <!-- Bottom-left finder pattern -->
  <rect x="2" y="20" width="10" height="10" fill="#000000"/>
  <rect x="4" y="22" width="6" height="6" fill="#ffffff"/>
  <rect x="6" y="24" width="2" height="2" fill="#000000"/>
  
  <!-- Data modules (simplified pattern) -->
  <rect x="14" y="2" width="2" height="2" fill="#000000"/>
  <rect x="16" y="4" width="2" height="2" fill="#000000"/>
  <rect x="14" y="6" width="2" height="2" fill="#000000"/>
  <rect x="18" y="6" width="2" height="2" fill="#000000"/>
  
  <rect x="2" y="14" width="2" height="2" fill="#000000"/>
  <rect x="6" y="14" width="2" height="2" fill="#000000"/>
  <rect x="10" y="14" width="2" height="2" fill="#000000"/>
  
  <rect x="14" y="14" width="2" height="2" fill="#000000"/>
  <rect x="16" y="16" width="2" height="2" fill="#000000"/>
  <rect x="18" y="14" width="2" height="2" fill="#000000"/>
  
  <rect x="22" y="14" width="2" height="2" fill="#000000"/>
  <rect x="26" y="14" width="2" height="2" fill="#000000"/>
  <rect x="24" y="16" width="2" height="2" fill="#000000"/>
  
  <rect x="14" y="20" width="2" height="2" fill="#000000"/>
  <rect x="16" y="22" width="2" height="2" fill="#000000"/>
  <rect x="14" y="24" width="2" height="2" fill="#000000"/>
  <rect x="18" y="24" width="2" height="2" fill="#000000"/>
  
  <!-- Center accent (blue) -->
  <rect x="15" y="15" width="2" height="2" fill="#2563eb"/>
</svg>